<?xml version="1.0" encoding="UTF-8" standalone="no"?>
<svg viewBox="0 0 1100 320" xmlns="http://www.w3.org/2000/svg">
  <!-- Background for all tubes -->
  <defs>
    <!-- Glow filter for the active digits -->
    <filter id="glow" x="-30%" y="-30%" width="160%" height="160%">
      <feGaussianBlur stdDeviation="5" result="blur"/>
      <feComposite in="SourceGraphic" in2="blur" operator="over"/>
    </filter>
    
    <!-- Tube glass effect -->
    <linearGradient id="tubeGlass" x1="0%" y1="0%" x2="100%" y2="0%">
      <stop offset="0%" style="stop-color:#444444;stop-opacity:0.3"/>
      <stop offset="45%" style="stop-color:#222222;stop-opacity:0.1"/>
      <stop offset="55%" style="stop-color:#222222;stop-opacity:0.1"/>
      <stop offset="100%" style="stop-color:#444444;stop-opacity:0.3"/>
    </linearGradient>
    
    <!-- Tube base gradient -->
    <linearGradient id="tubeBase" x1="0%" y1="0%" x2="0%" y2="100%">
      <stop offset="0%" style="stop-color:#555555"/>
      <stop offset="100%" style="stop-color:#333333"/>
    </linearGradient>
  </defs>
  
  <!-- Digit 0 -->
  <g transform="translate(10, 10)">
    <!-- Tube Base -->
    <rect x="0" y="260" width="100" height="40" rx="5" fill="url(#tubeBase)" stroke="#222222" stroke-width="1"/>
    
    <!-- Tube Glass -->
    <rect x="5" y="0" width="90" height="260" rx="15" fill="#111111" stroke="#333333" stroke-width="1"/>
    <rect x="5" y="0" width="90" height="260" rx="15" fill="url(#tubeGlass)" stroke="none" opacity="0.7"/>
    
    <!-- Digit Filament - 0 -->
    <path d="M50,40 C25,70 25,190 50,220 C75,190 75,70 50,40" 
          fill="none" stroke="#ff9933" stroke-width="7" opacity="0.2"/>
    <path d="M50,40 C25,70 25,190 50,220 C75,190 75,70 50,40" 
          fill="none" stroke="#ff5500" stroke-width="3" opacity="0.8" filter="url(#glow)"/>
    
    <!-- Label -->
    <text x="50" y="290" text-anchor="middle" font-family="Arial" font-size="20" fill="white">0</text>
  </g>
  
  <!-- Digit 1 -->
  <g transform="translate(120, 10)">
    <!-- Tube Base -->
    <rect x="0" y="260" width="100" height="40" rx="5" fill="url(#tubeBase)" stroke="#222222" stroke-width="1"/>
    
    <!-- Tube Glass -->
    <rect x="5" y="0" width="90" height="260" rx="15" fill="#111111" stroke="#333333" stroke-width="1"/>
    <rect x="5" y="0" width="90" height="260" rx="15" fill="url(#tubeGlass)" stroke="none" opacity="0.7"/>
    
    <!-- Digit Filament - 1 -->
    <path d="M50,40 C50,40 50,40 50,220" 
          fill="none" stroke="#ff9933" stroke-width="7" opacity="0.2"/>
    <path d="M50,40 C50,40 50,40 50,220" 
          fill="none" stroke="#ff5500" stroke-width="3" opacity="0.8" filter="url(#glow)"/>
    
    <!-- Label -->
    <text x="50" y="290" text-anchor="middle" font-family="Arial" font-size="20" fill="white">1</text>
  </g>
  
  <!-- Digit 2 -->
  <g transform="translate(230, 10)">
    <!-- Tube Base -->
    <rect x="0" y="260" width="100" height="40" rx="5" fill="url(#tubeBase)" stroke="#222222" stroke-width="1"/>
    
    <!-- Tube Glass -->
    <rect x="5" y="0" width="90" height="260" rx="15" fill="#111111" stroke="#333333" stroke-width="1"/>
    <rect x="5" y="0" width="90" height="260" rx="15" fill="url(#tubeGlass)" stroke="none" opacity="0.7"/>
    
    <!-- Digit Filament - 2 -->
    <path d="M30,60 C40,40 65,40 70,60 C75,80 65,100 55,120 C45,140 35,160 30,180 C25,200 30,220 70,220" 
          fill="none" stroke="#ff9933" stroke-width="7" opacity="0.2"/>
    <path d="M30,60 C40,40 65,40 70,60 C75,80 65,100 55,120 C45,140 35,160 30,180 C25,200 30,220 70,220" 
          fill="none" stroke="#ff5500" stroke-width="3" opacity="0.8" filter="url(#glow)"/>
    
    <!-- Label -->
    <text x="50" y="290" text-anchor="middle" font-family="Arial" font-size="20" fill="white">2</text>
  </g>
  
  <!-- Digit 3 -->
  <g transform="translate(340, 10)">
    <!-- Tube Base -->
    <rect x="0" y="260" width="100" height="40" rx="5" fill="url(#tubeBase)" stroke="#222222" stroke-width="1"/>
    
    <!-- Tube Glass -->
    <rect x="5" y="0" width="90" height="260" rx="15" fill="#111111" stroke="#333333" stroke-width="1"/>
    <rect x="5" y="0" width="90" height="260" rx="15" fill="url(#tubeGlass)" stroke="none" opacity="0.7"/>
    
    <!-- Digit Filament - 3 -->
    <path d="M30,50 C50,40 70,50 70,80 C70,110 40,110 40,130 C40,150 70,150 70,180 C70,210 50,220 30,210" 
          fill="none" stroke="#ff9933" stroke-width="7" opacity="0.2"/>
    <path d="M30,50 C50,40 70,50 70,80 C70,110 40,110 40,130 C40,150 70,150 70,180 C70,210 50,220 30,210" 
          fill="none" stroke="#ff5500" stroke-width="3" opacity="0.8" filter="url(#glow)"/>
    
    <!-- Label -->
    <text x="50" y="290" text-anchor="middle" font-family="Arial" font-size="20" fill="white">3</text>
  </g>
  
  <!-- Digit 4 -->
  <g transform="translate(450, 10)">
    <!-- Tube Base -->
    <rect x="0" y="260" width="100" height="40" rx="5" fill="url(#tubeBase)" stroke="#222222" stroke-width="1"/>
    
    <!-- Tube Glass -->
    <rect x="5" y="0" width="90" height="260" rx="15" fill="#111111" stroke="#333333" stroke-width="1"/>
    <rect x="5" y="0" width="90" height="260" rx="15" fill="url(#tubeGlass)" stroke="none" opacity="0.7"/>
    
    <!-- Digit Filament - 4 -->
    <path d="M65,40 C65,40 65,220 65,220 M65,130 C65,130 25,130 65,40" 
          fill="none" stroke="#ff9933" stroke-width="7" opacity="0.2"/>
    <path d="M65,40 C65,40 65,220 65,220 M65,130 C65,130 25,130 65,40" 
          fill="none" stroke="#ff5500" stroke-width="3" opacity="0.8" filter="url(#glow)"/>
    
    <!-- Label -->
    <text x="50" y="290" text-anchor="middle" font-family="Arial" font-size="20" fill="white">4</text>
  </g>
  
  <!-- Digit 5 -->
  <g transform="translate(560, 10)">
    <!-- Tube Base -->
    <rect x="0" y="260" width="100" height="40" rx="5" fill="url(#tubeBase)" stroke="#222222" stroke-width="1"/>
    
    <!-- Tube Glass -->
    <rect x="5" y="0" width="90" height="260" rx="15" fill="#111111" stroke="#333333" stroke-width="1"/>
    <rect x="5" y="0" width="90" height="260" rx="15" fill="url(#tubeGlass)" stroke="none" opacity="0.7"/>
    
    <!-- Digit Filament - 5 -->
    <path d="M70,40 C30,40 30,120 30,120 C30,120 60,110 70,130 C80,150 70,210 30,210" 
          fill="none" stroke="#ff9933" stroke-width="7" opacity="0.2"/>
    <path d="M70,40 C30,40 30,120 30,120 C30,120 60,110 70,130 C80,150 70,210 30,210" 
          fill="none" stroke="#ff5500" stroke-width="3" opacity="0.8" filter="url(#glow)"/>
    
    <!-- Label -->
    <text x="50" y="290" text-anchor="middle" font-family="Arial" font-size="20" fill="white">5</text>
  </g>
  
  <!-- Digit 6 -->
  <g transform="translate(670, 10)">
    <!-- Tube Base -->
    <rect x="0" y="260" width="100" height="40" rx="5" fill="url(#tubeBase)" stroke="#222222" stroke-width="1"/>
    
    <!-- Tube Glass -->
    <rect x="5" y="0" width="90" height="260" rx="15" fill="#111111" stroke="#333333" stroke-width="1"/>
    <rect x="5" y="0" width="90" height="260" rx="15" fill="url(#tubeGlass)" stroke="none" opacity="0.7"/>
    
    <!-- Digit Filament - 6 -->
    <path d="M70,40 C30,70 30,170 50,210 C70,240 75,180 50,170 C25,160 30,130 50,130" 
          fill="none" stroke="#ff9933" stroke-width="7" opacity="0.2"/>
    <path d="M70,40 C30,70 30,170 50,210 C70,240 75,180 50,170 C25,160 30,130 50,130" 
          fill="none" stroke="#ff5500" stroke-width="3" opacity="0.8" filter="url(#glow)"/>
    
    <!-- Label -->
    <text x="50" y="290" text-anchor="middle" font-family="Arial" font-size="20" fill="white">6</text>
  </g>
  
  <!-- Digit 7 -->
  <g transform="translate(780, 10)">
    <!-- Tube Base -->
    <rect x="0" y="260" width="100" height="40" rx="5" fill="url(#tubeBase)" stroke="#222222" stroke-width="1"/>
    
    <!-- Tube Glass -->
    <rect x="5" y="0" width="90" height="260" rx="15" fill="#111111" stroke="#333333" stroke-width="1"/>
    <rect x="5" y="0" width="90" height="260" rx="15" fill="url(#tubeGlass)" stroke="none" opacity="0.7"/>
    
    <!-- Digit Filament - 7 -->
    <path d="M30,40 C70,40 70,40 50,220" 
          fill="none" stroke="#ff9933" stroke-width="7" opacity="0.2"/>
    <path d="M30,40 C70,40 70,40 50,220" 
          fill="none" stroke="#ff5500" stroke-width="3" opacity="0.8" filter="url(#glow)"/>
    
    <!-- Label -->
    <text x="50" y="290" text-anchor="middle" font-family="Arial" font-size="20" fill="white">7</text>
  </g>
  
  <!-- Digit 8 -->
  <g transform="translate(890, 10)">
    <!-- Tube Base -->
    <rect x="0" y="260" width="100" height="40" rx="5" fill="url(#tubeBase)" stroke="#222222" stroke-width="1"/>
    
    <!-- Tube Glass -->
    <rect x="5" y="0" width="90" height="260" rx="15" fill="#111111" stroke="#333333" stroke-width="1"/>
    <rect x="5" y="0" width="90" height="260" rx="15" fill="url(#tubeGlass)" stroke="none" opacity="0.7"/>
    
    <!-- Digit Filament - 8 -->
    <path d="M50,40 C25,60 25,110 50,130 C75,110 75,60 50,40 M50,130 C25,150 25,200 50,220 C75,200 75,150 50,130" 
          fill="none" stroke="#ff9933" stroke-width="7" opacity="0.2"/>
    <path d="M50,40 C25,60 25,110 50,130 C75,110 75,60 50,40 M50,130 C25,150 25,200 50,220 C75,200 75,150 50,130" 
          fill="none" stroke="#ff5500" stroke-width="3" opacity="0.8" filter="url(#glow)"/>
    
    <!-- Label -->
    <text x="50" y="290" text-anchor="middle" font-family="Arial" font-size="20" fill="white">8</text>
  </g>
  
  <!-- Digit 9 -->
  <g transform="translate(1000, 10)">
    <!-- Tube Base -->
    <rect x="0" y="260" width="100" height="40" rx="5" fill="url(#tubeBase)" stroke="#222222" stroke-width="1"/>
    
    <!-- Tube Glass -->
    <rect x="5" y="0" width="90" height="260" rx="15" fill="#111111" stroke="#333333" stroke-width="1"/>
    <rect x="5" y="0" width="90" height="260" rx="15" fill="url(#tubeGlass)" stroke="none" opacity="0.7"/>
    
    <!-- Digit Filament - 9 -->
    <path d="M30,220 C70,190 70,90 50,50 C30,20 25,80 50,90 C75,100 70,130 50,130" 
          fill="none" stroke="#ff9933" stroke-width="7" opacity="0.2"/>
    <path d="M30,220 C70,190 70,90 50,50 C30,20 25,80 50,90 C75,100 70,130 50,130" 
          fill="none" stroke="#ff5500" stroke-width="3" opacity="0.8" filter="url(#glow)"/>
    
    <!-- Label -->
    <text x="50" y="290" text-anchor="middle" font-family="Arial" font-size="20" fill="white">9</text>
  </g>
</svg>